<svg version="1.1" id="Logo" x="0" y="0" width="223.033" height="213.408" xml:space="preserve" xmlns="http://www.w3.org/2000/svg">
  <style type="text/css" id="style2">
    .st0{fill:#2e2d2c}.st1{fill:#d62125}.st3{opacity:.35;fill:#b21a22}
  </style>
  <rect style="fill:#fff;fill-opacity:1;stroke-width:7.86848;stroke-linecap:round;stroke-opacity:.97561" id="rect706" width="250" height="250" x="-13.484" y="-18.296" ry="0"/>
  <path id="rect56" style="stroke-width:.444217;fill:#fff" d="M255.675 91.431h138.55v2.193h-138.55z"/>
  <path class="st3" d="M249.417-3.817h-1.235v53.523h1.235c4.667 0 8.45-.868 8.45-1.937v-49.65c0-1.069-3.783-1.936-8.45-1.936z" id="path62" style="stroke-width:.759434"/>
  <g id="g76" transform="translate(.443)">
    <path class="st0" d="M68.02 9.36 62.817 0h2.441l4.012 7.296L73.397 0h2.442l-5.32 9.36 5.61 10.028h-2.441l-4.447-7.965-4.506 7.965h-2.441z" id="path68"/>
    <path class="st0" d="M90.661 0h3.954c1.947 0 4.708.203 7.15 2.267 1.773 1.483 3.314 3.953 3.314 7.441 0 4.07-2.006 6.25-3.401 7.441-1.773 1.512-3.634 2.239-7.092 2.239H90.66V0Zm2.151 17.353h1.89c1.54 0 3.662-.174 5.552-1.744 1.453-1.221 2.616-3.14 2.616-5.901 0-4.65-3.256-7.673-8.168-7.673h-1.89z" id="path70"/>
    <path class="st0" d="M130.714 2.035h-7.906V7.79h7.673v2.034h-7.673v7.529h7.906v2.035h-10.057V0h10.057z" id="path72"/>
    <path class="st0" d="m146.409 0 5.464 14.795L157.338 0h2.383l-7.848 20.55L144.025 0Z" id="path74"/>
  </g>
  <path id="path64-5" class="st1" d="M284.101 119.119v11.896h76.204v-11.896z" style="fill:#d62125"/>
  <path id="path64-4" class="st1" d="M34.22 59.892c-6.952 0-12.587 5.635-12.587 12.588 0 6.952 5.635 12.588 12.588 12.588 5.547 0 10.245-3.593 11.922-8.575h6.584v-8.092h-6.606c-1.697-4.948-6.377-8.51-11.9-8.51z" style="fill:#d62125;stroke-width:.680216"/>
  <path id="path64-4-9" class="st1" d="M188.681 85.068c6.953 0 12.588-5.636 12.588-12.588 0-6.952-5.635-12.588-12.588-12.588-5.547 0-10.245 3.593-11.922 8.574h-6.584v8.092h6.606c1.697 4.948 6.377 8.51 11.9 8.51z" style="fill:#d62125;stroke-width:.680216"/>
  <g id="g2576" transform="translate(-246.812 -130.88)">
    <path id="path2284" style="fill:#d62125;fill-opacity:1;stroke-width:3.70016;stroke-linecap:round;stroke-opacity:.97561" d="M345.541 203.932a69.352 69.352 0 0 1-2.217-1.22 89.898 89.898 0 0 1-2.308-1.37 98.856 98.856 0 0 1-2.338-1.48c-.783-.512-1.57-1.041-2.358-1.583a144.916 144.916 0 0 1-4.726-3.4 187.236 187.236 0 0 1-4.678-3.627 232.675 232.675 0 0 1-4.549-3.736 273.976 273.976 0 0 1-4.338-3.735 310.68 310.68 0 0 1-4.043-3.615 336.206 336.206 0 0 1-11.465-10.937c-1.025-1.028-1.524-1.546-1.591-1.616a9.74 9.74 0 0 0-1.604 5.373v60.746c0 1.782.48 3.444 1.307 4.88z"/>
    <path id="path2293" style="fill:#fc0;fill-opacity:1;stroke-width:3.70016;stroke-linecap:round;stroke-opacity:.97561" d="M367.457 205.5c-.38.167-.766.347-1.143.498-.718.288-1.426.548-2.127.773-.7.226-1.39.418-2.072.575a19.8 19.8 0 0 1-2.011.357c-.66.081-1.31.123-1.948.123-.637 0-1.286-.042-1.945-.123-.66-.08-1.33-.2-2.01-.355a25.291 25.291 0 0 1-2.072-.57c-.7-.225-1.41-.48-2.129-.766-.232-.093-.471-.206-.705-.305l-46.236 35.707a9.731 9.731 0 0 0 6.04 2.092h98.114a9.734 9.734 0 0 0 6.385-2.373z"/>
    <path id="path2291" style="fill:#d62125;fill-opacity:1;stroke-width:3.70016;stroke-linecap:round;stroke-opacity:.97561" d="M415.281 167.459c-.128.133-.529.551-1.486 1.518a346.157 346.157 0 0 1-11.465 11.01c-1.288 1.18-2.641 2.399-4.043 3.638a274.632 274.632 0 0 1-4.338 3.758 233.195 233.195 0 0 1-4.549 3.762 187.341 187.341 0 0 1-4.677 3.648 144.98 144.98 0 0 1-4.727 3.424c-.787.545-1.574 1.077-2.357 1.592a98.727 98.727 0 0 1-4.647 2.87c-.615.355-1.222.684-1.828 1.01l44.727 34.541a9.753 9.753 0 0 0 1.095-4.498v-60.746c0-2.055-.629-3.956-1.705-5.527z"/>
    <path id="path2287" style="fill:#000;fill-opacity:1;stroke-width:3.70016;stroke-linecap:round;stroke-opacity:.97561" d="M309.1 163.213a9.736 9.736 0 0 0-5.586 1.75c.016.017.587.608 1.65 1.674a340.41 340.41 0 0 0 7.71 7.467 332.35 332.35 0 0 0 3.612 3.335 306.352 306.352 0 0 0 3.987 3.565 270.073 270.073 0 0 0 4.277 3.682 226.617 226.617 0 0 0 4.479 3.677 184.635 184.635 0 0 0 4.587 3.555 142.35 142.35 0 0 0 4.606 3.314c.764.526 1.524 1.036 2.28 1.53.755.493 1.506.97 2.25 1.425.743.457 1.48.891 2.208 1.303.728.412 1.447.8 2.154 1.164.708.364 1.405.704 2.086 1.016.681.312 1.346.598 1.995.855.648.258 1.281.486 1.892.684.61.198 1.2.368 1.768.504a16.42 16.42 0 0 0 1.629.308c.517.07 1.01.106 1.472.106.463 0 .954-.035 1.471-.106.517-.07 1.062-.175 1.629-.312a23.228 23.228 0 0 0 1.767-.504c.611-.2 1.242-.43 1.891-.69a41.23 41.23 0 0 0 1.996-.86c.681-.315 1.377-.656 2.084-1.022a61.836 61.836 0 0 0 2.154-1.172 71.787 71.787 0 0 0 2.21-1.31 94.346 94.346 0 0 0 2.25-1.436c.755-.497 1.515-1.01 2.279-1.54a142.23 142.23 0 0 0 4.603-3.335 184.944 184.944 0 0 0 4.588-3.578c1.516-1.22 3.015-2.46 4.479-3.701a270.678 270.678 0 0 0 4.277-3.706 333.362 333.362 0 0 0 15.309-14.46c.97-.979 1.4-1.427 1.507-1.538a9.742 9.742 0 0 0-5.437-1.644z"/>
  </g>
  <rect style="fill:#b21a22;fill-opacity:.34902;stroke-width:3.70016;stroke-linecap:round;stroke-opacity:.97561" id="rect573-0-0-4" width="117.659" height="80.291" x="289.464" y="-2.449" ry="9.773"/>
  <rect style="fill:#d62125;fill-opacity:1;stroke-width:3.70016;stroke-linecap:round;stroke-opacity:.97561" id="rect573-0-6" width="117.659" height="80.291" x="473.257" y="150.611" ry="9.773"/>
  <path style="fill:none;fill-opacity:1;stroke:#5f2597;stroke-width:3.7;stroke-linecap:round;stroke-dasharray:none;stroke-opacity:.97561" d="M476.09 153.622s38.4 39.751 55.996 39.751c17.597 0 55.997-40.008 55.997-40.008" id="path1652-5-9"/>
  <path style="fill:none;fill-opacity:1;stroke:#5f2597;stroke-width:3.7;stroke-linecap:round;stroke-dasharray:none;stroke-opacity:.97561" d="m465.636 235.24 57.136-44.123" id="path1652-5-0-5"/>
  <path style="fill:none;fill-opacity:1;stroke:#5f2597;stroke-width:3.7;stroke-linecap:round;stroke-dasharray:none;stroke-opacity:.97561" d="m599.243 235.24-57.136-44.123" id="path1652-5-0-2-1"/>
  <path class="st3" d="M308.095-47.973h-22.26c-4.667 0-8.45.61-8.45 1.361v34.895c0 .752 3.783 1.362 8.45 1.362h22.26z" id="path60" style="stroke-width:.636674"/>
  <g id="g490" transform="translate(.737 -153.884)">
    <text xml:space="preserve" style="font-size:46.7891px;line-height:6.57913px;font-family:NotANumber;-inkscape-font-specification:NotANumber;fill:#000;fill-opacity:1;stroke:none;stroke-width:1.62286;stroke-linecap:round;stroke-dasharray:none;stroke-opacity:.97561" x="11.072" y="320.715" id="text2580"><tspan x="11.072" y="320.715" id="tspan2582" style="font-style:normal;font-variant:normal;font-weight:400;font-stretch:normal;font-family:Jost;-inkscape-font-specification:Jost;stroke-width:1.62286"><tspan style="font-style:normal;font-variant:normal;font-weight:700;font-stretch:normal;font-family:Jost;-inkscape-font-specification:'Jost Bold';stroke-width:1.62286" id="tspan448">BZST</tspan> DIP</tspan></text>
    <text xml:space="preserve" style="font-size:37.4279px;line-height:5.26331px;font-family:NotANumber;-inkscape-font-specification:NotANumber;fill:#000;fill-opacity:1;stroke:none;stroke-width:1.62286;stroke-linecap:round;stroke-dasharray:none;stroke-opacity:.97561" x="5.402" y="358.347" id="text2580-4"><tspan x="5.402" y="358.347" id="tspan2582-9" style="font-style:normal;font-variant:normal;font-weight:400;font-stretch:normal;font-size:37.4279px;font-family:Jost;-inkscape-font-specification:Jost;stroke-width:1.62286"><tspan style="font-style:normal;font-variant:normal;font-weight:700;font-stretch:normal;font-family:Jost;-inkscape-font-specification:'Jost Bold';stroke-width:1.62286" id="tspan482">JAVA</tspan> CLIENT</tspan></text>
  </g>
</svg>
